<?xml version="1.0" encoding="utf-8"?>
<!-- Generator: Adobe Illustrator 21.1.0, SVG Export Plug-In . SVG Version: 6.00 Build 0)  -->
<svg version="1.1" xmlns="http://www.w3.org/2000/svg" xmlns:xlink="http://www.w3.org/1999/xlink" x="0px" y="0px"
	 viewBox="0 0 512 512" enable-background="new 0 0 512 512" xml:space="preserve">
<g id="Livello_2">
	<ellipse fill="#F6B1C3" cx="297.5" cy="212.7" rx="113" ry="108.8"/>
</g>
<g id="Livello_1">
	<g id="XMLID_1_">
		<path fill="#9FBD7C" d="M419.6,216.9c50.9,4.6,90.7,47.3,90.7,99.4c0,55.1-44.7,99.8-99.8,99.8c-1.2,0-2.4,0-3.6-0.1H105.1
			c-1.2,0-2.4,0.1-3.6,0.1c-55.1,0-99.8-44.7-99.8-99.8c0-51.4,38.8-93.7,88.8-99.2c-0.7-3.8-1-7.6-1-11.5
			c0-37.7,30.6-68.3,68.3-68.3c14.8,0,28.5,4.7,39.6,12.7c20.8-30.6,55.2-51.2,94.5-53.1c0.9,10.9,9.5,19.9,20.8,21
			c2.8,0.3,5.5,0,8.1-0.6c2,4.7,6.4,8.1,11.8,8.7c2.4,0.2,4.7-0.1,6.8-1c2.6,13.1,18,24.3,37.5,26.2c2.7,0.3,5.3,0.3,7.8,0.2
			c-0.9,21.2,13.1,39.9,33.1,45.3C418.9,203.2,419.5,209.9,419.6,216.9z"/>
	</g>
</g>
<g id="Livello_4">
	<circle fill="#75D5D8" cx="200.5" cy="384.5" r="5.5"/>
	<circle fill="#75D5D8" cx="211.5" cy="402.5" r="5.5"/>
	<rect x="195" y="358" fill="#75D5D8" width="11" height="26"/>
	<rect x="206" y="358" fill="#75D5D8" width="11" height="44"/>
</g>
<g id="Livello_3">
	<circle fill="#FFFFFF" cx="184" cy="256" r="59"/>
	<circle fill="#FFFFFF" cx="360" cy="275" r="40"/>
	<path fill="#1C3B5C" d="M331.5,375.3c0,0,10.9,0,10.9-16.4c0-15-31.4-53.9-73.7-53.9S195,343.9,195,358.9
		c0,16.4,10.9,16.4,10.9,16.4"/>
	<path fill="#E54C66" d="M219.6,376c-7.5,0-7.5-6.8-7.5-6.8c0-19.1,22.5-47.1,56.6-47.1c35.2,0,56.6,28.7,56.6,47.1
		c0,0-0.7,6.8-8.2,6.8H219.6z"/>
</g>
</svg>
